# xmcd
#
# Track frame offsets:
#	150
#	20912
#	41598
#	59039
#	88748
#	119597
#	150095
#	168470
#	188613
#	212321
#
# Disc length: 3201 seconds
#
# Revision: 1
# Processed by: cddbd v1.5.2PL0 Copyright (c) Steve Scherf et al.
# Submitted via: audiograbber 1.83.01
#
DISCID=810c7f0a
DTITLE=Hank Shizzoe and The Directors - Live In Motown Disc 1
DYEAR=2009
DGENRE=Blues
TTITLE0=Being There With You
TTITLE1=Headline
TTITLE2=Thanks I'm Feeling Fine
TTITLE3=Jam
TTITLE4=The Farmer's Song (For Ali)
TTITLE5=The Hurry And The Grace
TTITLE6=Yea ! Heavy And A Bottle Of Bread
TTITLE7=Forgive And Remember
TTITLE8=Indian Girl
TTITLE9=1-800-Grand-Prize
EXTD=
EXTT0=
EXTT1=
EXTT2=
EXTT3=
EXTT4=
EXTT5=
EXTT6=
EXTT7=
EXTT8=
EXTT9=
PLAYORDER=
